<svg width="24" height="24" viewBox="0 0 24 24" fill="none" xmlns="http://www.w3.org/2000/svg">
<path d="M7.31795 8.09228L7.47482 8.08029C7.53163 8.07469 7.58595 8.05646 7.63282 8.02728L7.6317 8.02828C7.78185 8.4903 7.96562 8.97632 8.19532 9.48533C8.49002 10.1514 8.78024 10.6984 9.10519 11.2264L9.06037 11.1464C9.03348 11.5104 9.00098 11.8844 8.9584 12.2464C8.93975 12.46 8.89119 12.6707 8.81386 12.8735L8.81946 12.8555C8.80601 12.8605 8.78696 14.9355 8.78696 14.9355C8.78738 15.5794 9.03053 16.2044 9.47728 16.71C9.92404 17.2155 10.5484 17.5722 11.2499 17.7226L11.2723 17.7266C11.3035 17.6544 11.3583 17.5923 11.4297 17.5484C11.5011 17.5045 11.5856 17.4809 11.6723 17.4806H12.3155C12.4014 17.4816 12.4851 17.5052 12.556 17.5485C12.6269 17.5917 12.682 17.6526 12.7144 17.7236L12.7155 17.7266C13.423 17.5807 14.0545 17.2259 14.5078 16.7197C14.9611 16.2135 15.2096 15.5855 15.2132 14.9375V14.9365C15.2132 14.9365 15.174 12.8705 15.1538 12.8565C15.087 12.6632 15.0413 12.4646 15.0171 12.2634L15.016 12.2484C14.9768 11.8844 14.951 11.5194 14.914 11.1484C15.1908 10.7024 15.481 10.1564 15.7365 9.59334L15.7791 9.48733C16.0088 8.97832 16.1869 8.4933 16.3427 8.03028C16.3887 8.05946 16.4423 8.07769 16.4984 8.08328H16.4996L16.6576 8.09529C16.8481 8.11329 17.0161 7.97328 17.0318 7.75627L17.2021 5.8252V5.8232C17.202 5.7455 17.1703 5.67048 17.1127 5.61214C17.0552 5.55381 16.9759 5.51615 16.8895 5.50619H16.8682C17.0174 4.50065 16.925 3.47827 16.5971 2.50709L16.6116 2.55809C16.2956 1.93179 15.8149 1.38277 15.2104 0.957636C14.6058 0.532499 13.8953 0.243789 13.1391 0.116004L13.11 0.112004C12.7433 0.0463997 12.3711 0.00892822 11.9973 0H11.9738C11.5827 0.00624933 11.1933 0.0457629 10.8106 0.118004L10.851 0.112004C10.0952 0.237209 9.38395 0.522177 8.77687 0.943053C8.16979 1.36393 7.68451 1.90847 7.36165 2.53109L7.34932 2.55809C7.02672 3.52553 6.94074 4.54353 7.09721 5.54319L7.09272 5.50619C7.00614 5.51456 6.92605 5.5511 6.86775 5.60885C6.80946 5.66659 6.77705 5.74148 6.77673 5.8192V5.8262L6.94705 7.75727C6.96274 7.97928 7.13306 8.11329 7.31683 8.09529L7.31795 8.09228Z" fill="#05A5FF"/>
<path d="M23.9982 20.8724C23.9197 17.8323 23.5791 17.1443 23.3953 16.6783C23.3225 16.4913 23.2631 15.2272 20.9235 14.4072C19.4892 13.9032 17.6381 13.8932 16.0716 13.3022V14.9462C16.0699 15.7891 15.7399 16.6052 15.1381 17.2547C14.5362 17.9042 13.7 18.3467 12.7727 18.5063L12.7469 18.5103C12.7302 18.599 12.679 18.6797 12.6024 18.7382C12.5258 18.7966 12.4287 18.8293 12.3279 18.8304H12.3077V20.0704C12.3077 20.6523 12.5667 21.2104 13.0278 21.6218C13.4888 22.0333 14.1141 22.2645 14.7661 22.2645C15.4182 22.2645 16.0435 22.0333 16.5045 21.6218C16.9656 21.2104 17.2246 20.6523 17.2246 20.0704V19.2044C16.8862 19.1601 16.5777 19.0066 16.3575 18.7731C16.1373 18.5395 16.0206 18.242 16.0295 17.9369C16.0385 17.6317 16.1724 17.3401 16.406 17.1171C16.6396 16.8942 16.9567 16.7553 17.2972 16.7269C17.6378 16.6985 17.9782 16.7824 18.2541 16.9629C18.53 17.1433 18.7222 17.4077 18.7944 17.7061C18.8666 18.0044 18.8138 18.3161 18.6459 18.582C18.478 18.848 18.2068 19.0498 17.8835 19.1494L17.8734 19.1524V20.1174C17.8734 20.8531 17.5459 21.5587 16.963 22.079C16.38 22.5992 15.5894 22.8915 14.765 22.8915C13.9406 22.8915 13.15 22.5992 12.5671 22.079C11.9842 21.5587 11.6567 20.8531 11.6567 20.1174V20.0674V20.0694V18.8184C11.5607 18.8125 11.4698 18.7779 11.3986 18.7202C11.3274 18.6625 11.2802 18.585 11.2645 18.5003V18.4983C10.3362 18.3403 9.49831 17.8992 8.89443 17.2504C8.29056 16.6016 7.95825 15.7856 7.95444 14.9422V13.2852C6.38122 13.8882 4.5189 13.9002 3.07678 14.4052C0.730387 15.2242 0.676602 16.4853 0.604888 16.6753C0.425603 17.1433 0.0804798 17.8283 0.00204274 20.8704C-0.0114036 21.2704 0.0020428 21.8835 1.3534 22.4195C4.29591 23.4495 8.08666 23.7695 11.8236 23.9995H12.1822C15.927 23.7715 19.7122 23.4525 22.6524 22.4195C23.9982 21.8865 24.0105 21.2774 23.9982 20.8734V20.8724ZM7.54769 19.6324H6.15151V20.8834H5.15424V19.6364H3.75806V18.7463H5.15424V17.5003H6.15151V18.7463H7.54769V19.6324Z" fill="#05A5FF"/>
<path d="M18.1823 17.9587V17.9577C18.1822 17.7792 18.1026 17.6081 17.9611 17.482C17.8197 17.3559 17.6279 17.2851 17.4279 17.2852C17.228 17.2852 17.0362 17.3562 16.8948 17.4824C16.7535 17.6086 16.6741 17.7797 16.6741 17.9582C16.6741 18.1366 16.7535 18.3078 16.8948 18.434C17.0362 18.5602 17.228 18.6311 17.4279 18.6312C17.6279 18.6313 17.8197 18.5605 17.9611 18.4343C18.1026 18.3082 18.1822 18.1371 18.1823 17.9587Z" fill="white"/>
</svg>
